# xmcd CD database file
# Generated: Mon Oct 20 18:06:21 2003 by KSCD
# 
# Track frame offsets:
#       150
#       14926
#       26164
#       37102
#       47104
#       58578
#       70803
#       80853
#       94020
#       101551
#       110701
#       127726
#       137851
#       152245
#       167397
#       178090
#       190456
#       201950
#       212120
#       226241
#       237547
#       253132
#       264418
#
# Disc length: 3896 seconds
#
# Revision: 1
# Processed by: cddbd v1.4PL0 Copyright (c) Steve Scherf et al.
# Submitted via: Kscd 1.3.3
#
DISCID=5b0f3617
DTITLE=Sergej and Witalij - Duett von Sergej und Witalij
DYEAR=1900
DGENRE=
TTITLE0=S.Meyers-Cavatina
TTITLE1=A.Karas-Der Dritte Mann
TTITLE2=M.Flajtman-Liryczny Wals
TTITLE3=A.C.Jobin-Bosa-Nova
TTITLE4=The Beatles-Yesterday
TTITLE5=Foldance-Danza Espanola
TTITLE6=The Beatles-Let it Be
TTITLE7=F.Wolkof-Menestrel's Love Song
TTITLE8=F.Wolkof-The Merry Girl Shepherd
TTITLE9=O.Farres-Chissa, Chissa, Chissa
TTITLE10=G.Gorodos-Milonga
TTITLE11=Folkdance-Danza Cubano
TTITLE12=l.Brouwer-Un Dia De Novembre
TTITLE13=Anonimo-Romance
TTITLE14=J.Morel-Danza Brasileira
TTITLE15=J.L.Merlin-Evocacion
TTITLE16=R.Dyens-Tango in The Sky
TTITLE17=Traditional-Spanish Melody
TTITLE18=F.Tarrega-Recuerdos De La Alhambra
TTITLE19=P.Pizzitoni-Muzzet
TTITLE20=Cuchiny-Ave Maria
TTITLE21=Folkdance-Salvador
TTITLE22=J.Rodrigo-Concierto De Aranjeuez
EXTD=
EXTT0=
EXTT1=
EXTT2=
EXTT3=
EXTT4=
EXTT5=
EXTT6=
EXTT7=
EXTT8=
EXTT9=
EXTT10=
EXTT11=
EXTT12=
EXTT13=
EXTT14=
EXTT15=
EXTT16=
EXTT17=
EXTT18=
EXTT19=
EXTT20=
EXTT21=
EXTT22=
PLAYORDER=
